<mxfile host="app.diagrams.net" modified="2022-04-30T15:48:03.681Z" agent="5.0 (Windows NT 10.0; Win64; x64) AppleWebKit/537.36 (KHTML, like Gecko) Chrome/100.0.4896.127 Safari/537.36" etag="DToEIxnf_u6ylfN8HqHT" version="17.5.0" type="github">
  <diagram name="Page-1" id="8ce9d11a-91a2-4d17-14d8-a56ed91bf033">
    <mxGraphModel dx="1422" dy="762" grid="1" gridSize="10" guides="1" tooltips="1" connect="1" arrows="1" fold="1" page="1" pageScale="1" pageWidth="1100" pageHeight="850" background="none" math="0" shadow="0">
      <root>
        <mxCell id="0" />
        <mxCell id="1" parent="0" />
        <mxCell id="318fzTL56NjNgk1-DEGz-19" style="edgeStyle=orthogonalEdgeStyle;rounded=0;orthogonalLoop=1;jettySize=auto;html=1;" parent="1" source="318fzTL56NjNgk1-DEGz-1" target="318fzTL56NjNgk1-DEGz-16" edge="1">
          <mxGeometry relative="1" as="geometry">
            <mxPoint x="760" y="390" as="targetPoint" />
            <Array as="points">
              <mxPoint x="760" y="380" />
              <mxPoint x="760" y="380" />
            </Array>
          </mxGeometry>
        </mxCell>
        <mxCell id="318fzTL56NjNgk1-DEGz-1" value="Zdrojové kódy programu" style="shape=process;whiteSpace=wrap;html=1;backgroundOutline=1;" parent="1" vertex="1">
          <mxGeometry x="610" y="360" width="120" height="60" as="geometry" />
        </mxCell>
        <mxCell id="aWs6wPL-7yNdKMg-z43p-1" style="edgeStyle=orthogonalEdgeStyle;rounded=0;orthogonalLoop=1;jettySize=auto;html=1;" edge="1" parent="1" source="318fzTL56NjNgk1-DEGz-3" target="318fzTL56NjNgk1-DEGz-16">
          <mxGeometry relative="1" as="geometry">
            <Array as="points">
              <mxPoint x="723" y="290" />
              <mxPoint x="723" y="340" />
            </Array>
          </mxGeometry>
        </mxCell>
        <mxCell id="318fzTL56NjNgk1-DEGz-3" value="Uživatel" style="shape=umlActor;verticalLabelPosition=bottom;verticalAlign=top;html=1;outlineConnect=0;" parent="1" vertex="1">
          <mxGeometry x="635" y="260" width="30" height="60" as="geometry" />
        </mxCell>
        <mxCell id="318fzTL56NjNgk1-DEGz-24" style="edgeStyle=orthogonalEdgeStyle;rounded=0;orthogonalLoop=1;jettySize=auto;html=1;" parent="1" source="318fzTL56NjNgk1-DEGz-14" target="318fzTL56NjNgk1-DEGz-16" edge="1">
          <mxGeometry relative="1" as="geometry">
            <mxPoint x="835" y="300" as="targetPoint" />
          </mxGeometry>
        </mxCell>
        <mxCell id="318fzTL56NjNgk1-DEGz-14" value="Potřeba kompilace" style="shape=hexagon;perimeter=hexagonPerimeter;whiteSpace=wrap;html=1;rounded=0;shadow=0;labelBackgroundColor=none;strokeWidth=1;fontFamily=Verdana;fontSize=12;align=center;" parent="1" vertex="1">
          <mxGeometry x="760" y="220" width="170" height="60" as="geometry" />
        </mxCell>
        <mxCell id="318fzTL56NjNgk1-DEGz-28" style="edgeStyle=orthogonalEdgeStyle;rounded=0;orthogonalLoop=1;jettySize=auto;html=1;" parent="1" source="318fzTL56NjNgk1-DEGz-16" target="318fzTL56NjNgk1-DEGz-21" edge="1">
          <mxGeometry relative="1" as="geometry">
            <Array as="points">
              <mxPoint x="980" y="370" />
              <mxPoint x="980" y="370" />
            </Array>
          </mxGeometry>
        </mxCell>
        <mxCell id="wex1mb7kt1AqzaQvMvRQ-4" style="edgeStyle=orthogonalEdgeStyle;rounded=0;orthogonalLoop=1;jettySize=auto;html=1;" parent="1" source="318fzTL56NjNgk1-DEGz-16" target="wex1mb7kt1AqzaQvMvRQ-3" edge="1">
          <mxGeometry relative="1" as="geometry" />
        </mxCell>
        <mxCell id="318fzTL56NjNgk1-DEGz-16" value="Překlad&lt;br&gt;(clang++)" style="rounded=1;whiteSpace=wrap;html=1;shadow=0;labelBackgroundColor=none;strokeWidth=1;fontFamily=Verdana;fontSize=12;align=center;" parent="1" vertex="1">
          <mxGeometry x="780" y="320" width="130" height="80" as="geometry" />
        </mxCell>
        <mxCell id="318fzTL56NjNgk1-DEGz-21" value="Zkompilovaný program" style="shape=process;whiteSpace=wrap;html=1;backgroundOutline=1;" parent="1" vertex="1">
          <mxGeometry x="950" y="330" width="120" height="60" as="geometry" />
        </mxCell>
        <mxCell id="wex1mb7kt1AqzaQvMvRQ-3" value="Program přeložen" style="shape=hexagon;perimeter=hexagonPerimeter;whiteSpace=wrap;html=1;rounded=0;shadow=0;labelBackgroundColor=none;strokeWidth=1;fontFamily=Verdana;fontSize=12;align=center;" parent="1" vertex="1">
          <mxGeometry x="760" y="440" width="170" height="60" as="geometry" />
        </mxCell>
      </root>
    </mxGraphModel>
  </diagram>
</mxfile>
